# xmcd
#
# Track frame offsets:
# 150
# 18080
# 42310
# 60790
# 76230
# 94365
# 113120
# 129105
#
# Disc length: 2010 seconds
#
#
# Revision: 1
# Processed by: cddbd v1.5.1PL0 Copyright (c) Steve Scherf et al.
# Submitted via: FreeRIP 2.941 
#
DISCID=5207d808
DTITLE=Phifer Marshall Band - Powerhouse Blues
DYEAR=2005
DGENRE=Blues
TTITLE0=Don't Do That No Mo
TTITLE1=Please Call Daddy
TTITLE2=Mill Hill Midge
TTITLE3=You Don't Know What I Want
TTITLE4=All Alone
TTITLE5=I Got It Bad
TTITLE6=Sold My Soul
TTITLE7=After The Party
EXTD=As heard on\nBluesfestRadio.com
EXTT0=
EXTT1=
EXTT2=
EXTT3=
EXTT4=
EXTT5=
EXTT6=
EXTT7=
PLAYORDER=
